<svg xmlns="http://www.w3.org/2000/svg" xml:space="preserve" xmlns:xlink="http://www.w3.org/1999/xlink" style="max-width: 100%;height: auto;" width="980" height="980" viewBox="0 0 980 980">
<rect width="980" height="980" fill="#ffffff" x="0" y="0"></rect>
<g fill="#000000">
<g transform="translate(200,40) scale(3.4333333333333)"><rect width="6" height="6"></rect></g>
<g transform="translate(240,40) scale(3.4333333333333)"><rect width="6" height="6"></rect></g>
<g transform="translate(280,40) scale(3.4333333333333)"><rect width="6" height="6"></rect></g>
<g transform="translate(320,40) scale(3.4333333333333)"><rect width="6" height="6"></rect></g>
<g transform="translate(340,40) scale(3.4333333333333)"><rect width="6" height="6"></rect></g>
<g transform="translate(380,40) scale(3.4333333333333)"><rect width="6" height="6"></rect></g>
<g transform="translate(440,40) scale(3.4333333333333)"><rect width="6" height="6"></rect></g>
<g transform="translate(480,40) scale(3.4333333333333)"><rect width="6" height="6"></rect></g>
<g transform="translate(520,40) scale(3.4333333333333)"><rect width="6" height="6"></rect></g>
<g transform="translate(540,40) scale(3.4333333333333)"><rect width="6" height="6"></rect></g>
<g transform="translate(580,40) scale(3.4333333333333)"><rect width="6" height="6"></rect></g>
<g transform="translate(600,40) scale(3.4333333333333)"><rect width="6" height="6"></rect></g>
<g transform="translate(620,40) scale(3.4333333333333)"><rect width="6" height="6"></rect></g>
<g transform="translate(640,40) scale(3.4333333333333)"><rect width="6" height="6"></rect></g>
<g transform="translate(660,40) scale(3.4333333333333)"><rect width="6" height="6"></rect></g>
<g transform="translate(700,40) scale(3.4333333333333)"><rect width="6" height="6"></rect></g>
<g transform="translate(760,40) scale(3.4333333333333)"><rect width="6" height="6"></rect></g>
<g transform="translate(200,60) scale(3.4333333333333)"><rect width="6" height="6"></rect></g>
<g transform="translate(220,60) scale(3.4333333333333)"><rect width="6" height="6"></rect></g>
<g transform="translate(240,60) scale(3.4333333333333)"><rect width="6" height="6"></rect></g>
<g transform="translate(340,60) scale(3.4333333333333)"><rect width="6" height="6"></rect></g>
<g transform="translate(380,60) scale(3.4333333333333)"><rect width="6" height="6"></rect></g>
<g transform="translate(420,60) scale(3.4333333333333)"><rect width="6" height="6"></rect></g>
<g transform="translate(440,60) scale(3.4333333333333)"><rect width="6" height="6"></rect></g>
<g transform="translate(480,60) scale(3.4333333333333)"><rect width="6" height="6"></rect></g>
<g transform="translate(620,60) scale(3.4333333333333)"><rect width="6" height="6"></rect></g>
<g transform="translate(700,60) scale(3.4333333333333)"><rect width="6" height="6"></rect></g>
<g transform="translate(740,60) scale(3.4333333333333)"><rect width="6" height="6"></rect></g>
<g transform="translate(200,80) scale(3.4333333333333)"><rect width="6" height="6"></rect></g>
<g transform="translate(220,80) scale(3.4333333333333)"><rect width="6" height="6"></rect></g>
<g transform="translate(280,80) scale(3.4333333333333)"><rect width="6" height="6"></rect></g>
<g transform="translate(300,80) scale(3.4333333333333)"><rect width="6" height="6"></rect></g>
<g transform="translate(360,80) scale(3.4333333333333)"><rect width="6" height="6"></rect></g>
<g transform="translate(460,80) scale(3.4333333333333)"><rect width="6" height="6"></rect></g>
<g transform="translate(520,80) scale(3.4333333333333)"><rect width="6" height="6"></rect></g>
<g transform="translate(540,80) scale(3.4333333333333)"><rect width="6" height="6"></rect></g>
<g transform="translate(620,80) scale(3.4333333333333)"><rect width="6" height="6"></rect></g>
<g transform="translate(660,80) scale(3.4333333333333)"><rect width="6" height="6"></rect></g>
<g transform="translate(700,80) scale(3.4333333333333)"><rect width="6" height="6"></rect></g>
<g transform="translate(740,80) scale(3.4333333333333)"><rect width="6" height="6"></rect></g>
<g transform="translate(220,100) scale(3.4333333333333)"><rect width="6" height="6"></rect></g>
<g transform="translate(260,100) scale(3.4333333333333)"><rect width="6" height="6"></rect></g>
<g transform="translate(280,100) scale(3.4333333333333)"><rect width="6" height="6"></rect></g>
<g transform="translate(320,100) scale(3.4333333333333)"><rect width="6" height="6"></rect></g>
<g transform="translate(340,100) scale(3.4333333333333)"><rect width="6" height="6"></rect></g>
<g transform="translate(360,100) scale(3.4333333333333)"><rect width="6" height="6"></rect></g>
<g transform="translate(380,100) scale(3.4333333333333)"><rect width="6" height="6"></rect></g>
<g transform="translate(420,100) scale(3.4333333333333)"><rect width="6" height="6"></rect></g>
<g transform="translate(480,100) scale(3.4333333333333)"><rect width="6" height="6"></rect></g>
<g transform="translate(500,100) scale(3.4333333333333)"><rect width="6" height="6"></rect></g>
<g transform="translate(560,100) scale(3.4333333333333)"><rect width="6" height="6"></rect></g>
<g transform="translate(600,100) scale(3.4333333333333)"><rect width="6" height="6"></rect></g>
<g transform="translate(620,100) scale(3.4333333333333)"><rect width="6" height="6"></rect></g>
<g transform="translate(740,100) scale(3.4333333333333)"><rect width="6" height="6"></rect></g>
<g transform="translate(760,100) scale(3.4333333333333)"><rect width="6" height="6"></rect></g>
<g transform="translate(220,120) scale(3.4333333333333)"><rect width="6" height="6"></rect></g>
<g transform="translate(280,120) scale(3.4333333333333)"><rect width="6" height="6"></rect></g>
<g transform="translate(340,120) scale(3.4333333333333)"><rect width="6" height="6"></rect></g>
<g transform="translate(440,120) scale(3.4333333333333)"><rect width="6" height="6"></rect></g>
<g transform="translate(460,120) scale(3.4333333333333)"><rect width="6" height="6"></rect></g>
<g transform="translate(480,120) scale(3.4333333333333)"><rect width="6" height="6"></rect></g>
<g transform="translate(500,120) scale(3.4333333333333)"><rect width="6" height="6"></rect></g>
<g transform="translate(520,120) scale(3.4333333333333)"><rect width="6" height="6"></rect></g>
<g transform="translate(540,120) scale(3.4333333333333)"><rect width="6" height="6"></rect></g>
<g transform="translate(560,120) scale(3.4333333333333)"><rect width="6" height="6"></rect></g>
<g transform="translate(640,120) scale(3.4333333333333)"><rect width="6" height="6"></rect></g>
<g transform="translate(660,120) scale(3.4333333333333)"><rect width="6" height="6"></rect></g>
<g transform="translate(720,120) scale(3.4333333333333)"><rect width="6" height="6"></rect></g>
<g transform="translate(740,120) scale(3.4333333333333)"><rect width="6" height="6"></rect></g>
<g transform="translate(760,120) scale(3.4333333333333)"><rect width="6" height="6"></rect></g>
<g transform="translate(200,140) scale(3.4333333333333)"><rect width="6" height="6"></rect></g>
<g transform="translate(220,140) scale(3.4333333333333)"><rect width="6" height="6"></rect></g>
<g transform="translate(260,140) scale(3.4333333333333)"><rect width="6" height="6"></rect></g>
<g transform="translate(280,140) scale(3.4333333333333)"><rect width="6" height="6"></rect></g>
<g transform="translate(320,140) scale(3.4333333333333)"><rect width="6" height="6"></rect></g>
<g transform="translate(380,140) scale(3.4333333333333)"><rect width="6" height="6"></rect></g>
<g transform="translate(400,140) scale(3.4333333333333)"><rect width="6" height="6"></rect></g>
<g transform="translate(420,140) scale(3.4333333333333)"><rect width="6" height="6"></rect></g>
<g transform="translate(440,140) scale(3.4333333333333)"><rect width="6" height="6"></rect></g>
<g transform="translate(520,140) scale(3.4333333333333)"><rect width="6" height="6"></rect></g>
<g transform="translate(540,140) scale(3.4333333333333)"><rect width="6" height="6"></rect></g>
<g transform="translate(700,140) scale(3.4333333333333)"><rect width="6" height="6"></rect></g>
<g transform="translate(200,160) scale(3.4333333333333)"><rect width="6" height="6"></rect></g>
<g transform="translate(240,160) scale(3.4333333333333)"><rect width="6" height="6"></rect></g>
<g transform="translate(280,160) scale(3.4333333333333)"><rect width="6" height="6"></rect></g>
<g transform="translate(320,160) scale(3.4333333333333)"><rect width="6" height="6"></rect></g>
<g transform="translate(360,160) scale(3.4333333333333)"><rect width="6" height="6"></rect></g>
<g transform="translate(400,160) scale(3.4333333333333)"><rect width="6" height="6"></rect></g>
<g transform="translate(440,160) scale(3.4333333333333)"><rect width="6" height="6"></rect></g>
<g transform="translate(480,160) scale(3.4333333333333)"><rect width="6" height="6"></rect></g>
<g transform="translate(520,160) scale(3.4333333333333)"><rect width="6" height="6"></rect></g>
<g transform="translate(560,160) scale(3.4333333333333)"><rect width="6" height="6"></rect></g>
<g transform="translate(600,160) scale(3.4333333333333)"><rect width="6" height="6"></rect></g>
<g transform="translate(640,160) scale(3.4333333333333)"><rect width="6" height="6"></rect></g>
<g transform="translate(680,160) scale(3.4333333333333)"><rect width="6" height="6"></rect></g>
<g transform="translate(720,160) scale(3.4333333333333)"><rect width="6" height="6"></rect></g>
<g transform="translate(760,160) scale(3.4333333333333)"><rect width="6" height="6"></rect></g>
<g transform="translate(200,180) scale(3.4333333333333)"><rect width="6" height="6"></rect></g>
<g transform="translate(220,180) scale(3.4333333333333)"><rect width="6" height="6"></rect></g>
<g transform="translate(280,180) scale(3.4333333333333)"><rect width="6" height="6"></rect></g>
<g transform="translate(320,180) scale(3.4333333333333)"><rect width="6" height="6"></rect></g>
<g transform="translate(360,180) scale(3.4333333333333)"><rect width="6" height="6"></rect></g>
<g transform="translate(380,180) scale(3.4333333333333)"><rect width="6" height="6"></rect></g>
<g transform="translate(400,180) scale(3.4333333333333)"><rect width="6" height="6"></rect></g>
<g transform="translate(420,180) scale(3.4333333333333)"><rect width="6" height="6"></rect></g>
<g transform="translate(440,180) scale(3.4333333333333)"><rect width="6" height="6"></rect></g>
<g transform="translate(520,180) scale(3.4333333333333)"><rect width="6" height="6"></rect></g>
<g transform="translate(540,180) scale(3.4333333333333)"><rect width="6" height="6"></rect></g>
<g transform="translate(560,180) scale(3.4333333333333)"><rect width="6" height="6"></rect></g>
<g transform="translate(620,180) scale(3.4333333333333)"><rect width="6" height="6"></rect></g>
<g transform="translate(680,180) scale(3.4333333333333)"><rect width="6" height="6"></rect></g>
<g transform="translate(720,180) scale(3.4333333333333)"><rect width="6" height="6"></rect></g>
<g transform="translate(740,180) scale(3.4333333333333)"><rect width="6" height="6"></rect></g>
<g transform="translate(760,180) scale(3.4333333333333)"><rect width="6" height="6"></rect></g>
<g transform="translate(80,200) scale(3.4333333333333)"><rect width="6" height="6"></rect></g>
<g transform="translate(100,200) scale(3.4333333333333)"><rect width="6" height="6"></rect></g>
<g transform="translate(120,200) scale(3.4333333333333)"><rect width="6" height="6"></rect></g>
<g transform="translate(160,200) scale(3.4333333333333)"><rect width="6" height="6"></rect></g>
<g transform="translate(200,200) scale(3.4333333333333)"><rect width="6" height="6"></rect></g>
<g transform="translate(280,200) scale(3.4333333333333)"><rect width="6" height="6"></rect></g>
<g transform="translate(340,200) scale(3.4333333333333)"><rect width="6" height="6"></rect></g>
<g transform="translate(360,200) scale(3.4333333333333)"><rect width="6" height="6"></rect></g>
<g transform="translate(380,200) scale(3.4333333333333)"><rect width="6" height="6"></rect></g>
<g transform="translate(400,200) scale(3.4333333333333)"><rect width="6" height="6"></rect></g>
<g transform="translate(440,200) scale(3.4333333333333)"><rect width="6" height="6"></rect></g>
<g transform="translate(460,200) scale(3.4333333333333)"><rect width="6" height="6"></rect></g>
<g transform="translate(480,200) scale(3.4333333333333)"><rect width="6" height="6"></rect></g>
<g transform="translate(500,200) scale(3.4333333333333)"><rect width="6" height="6"></rect></g>
<g transform="translate(520,200) scale(3.4333333333333)"><rect width="6" height="6"></rect></g>
<g transform="translate(540,200) scale(3.4333333333333)"><rect width="6" height="6"></rect></g>
<g transform="translate(580,200) scale(3.4333333333333)"><rect width="6" height="6"></rect></g>
<g transform="translate(660,200) scale(3.4333333333333)"><rect width="6" height="6"></rect></g>
<g transform="translate(720,200) scale(3.4333333333333)"><rect width="6" height="6"></rect></g>
<g transform="translate(740,200) scale(3.4333333333333)"><rect width="6" height="6"></rect></g>
<g transform="translate(760,200) scale(3.4333333333333)"><rect width="6" height="6"></rect></g>
<g transform="translate(780,200) scale(3.4333333333333)"><rect width="6" height="6"></rect></g>
<g transform="translate(800,200) scale(3.4333333333333)"><rect width="6" height="6"></rect></g>
<g transform="translate(820,200) scale(3.4333333333333)"><rect width="6" height="6"></rect></g>
<g transform="translate(880,200) scale(3.4333333333333)"><rect width="6" height="6"></rect></g>
<g transform="translate(900,200) scale(3.4333333333333)"><rect width="6" height="6"></rect></g>
<g transform="translate(920,200) scale(3.4333333333333)"><rect width="6" height="6"></rect></g>
<g transform="translate(40,220) scale(3.4333333333333)"><rect width="6" height="6"></rect></g>
<g transform="translate(120,220) scale(3.4333333333333)"><rect width="6" height="6"></rect></g>
<g transform="translate(140,220) scale(3.4333333333333)"><rect width="6" height="6"></rect></g>
<g transform="translate(180,220) scale(3.4333333333333)"><rect width="6" height="6"></rect></g>
<g transform="translate(240,220) scale(3.4333333333333)"><rect width="6" height="6"></rect></g>
<g transform="translate(280,220) scale(3.4333333333333)"><rect width="6" height="6"></rect></g>
<g transform="translate(300,220) scale(3.4333333333333)"><rect width="6" height="6"></rect></g>
<g transform="translate(340,220) scale(3.4333333333333)"><rect width="6" height="6"></rect></g>
<g transform="translate(360,220) scale(3.4333333333333)"><rect width="6" height="6"></rect></g>
<g transform="translate(420,220) scale(3.4333333333333)"><rect width="6" height="6"></rect></g>
<g transform="translate(440,220) scale(3.4333333333333)"><rect width="6" height="6"></rect></g>
<g transform="translate(460,220) scale(3.4333333333333)"><rect width="6" height="6"></rect></g>
<g transform="translate(560,220) scale(3.4333333333333)"><rect width="6" height="6"></rect></g>
<g transform="translate(620,220) scale(3.4333333333333)"><rect width="6" height="6"></rect></g>
<g transform="translate(640,220) scale(3.4333333333333)"><rect width="6" height="6"></rect></g>
<g transform="translate(700,220) scale(3.4333333333333)"><rect width="6" height="6"></rect></g>
<g transform="translate(860,220) scale(3.4333333333333)"><rect width="6" height="6"></rect></g>
<g transform="translate(880,220) scale(3.4333333333333)"><rect width="6" height="6"></rect></g>
<g transform="translate(60,240) scale(3.4333333333333)"><rect width="6" height="6"></rect></g>
<g transform="translate(100,240) scale(3.4333333333333)"><rect width="6" height="6"></rect></g>
<g transform="translate(120,240) scale(3.4333333333333)"><rect width="6" height="6"></rect></g>
<g transform="translate(160,240) scale(3.4333333333333)"><rect width="6" height="6"></rect></g>
<g transform="translate(260,240) scale(3.4333333333333)"><rect width="6" height="6"></rect></g>
<g transform="translate(300,240) scale(3.4333333333333)"><rect width="6" height="6"></rect></g>
<g transform="translate(320,240) scale(3.4333333333333)"><rect width="6" height="6"></rect></g>
<g transform="translate(360,240) scale(3.4333333333333)"><rect width="6" height="6"></rect></g>
<g transform="translate(380,240) scale(3.4333333333333)"><rect width="6" height="6"></rect></g>
<g transform="translate(400,240) scale(3.4333333333333)"><rect width="6" height="6"></rect></g>
<g transform="translate(460,240) scale(3.4333333333333)"><rect width="6" height="6"></rect></g>
<g transform="translate(500,240) scale(3.4333333333333)"><rect width="6" height="6"></rect></g>
<g transform="translate(540,240) scale(3.4333333333333)"><rect width="6" height="6"></rect></g>
<g transform="translate(560,240) scale(3.4333333333333)"><rect width="6" height="6"></rect></g>
<g transform="translate(580,240) scale(3.4333333333333)"><rect width="6" height="6"></rect></g>
<g transform="translate(600,240) scale(3.4333333333333)"><rect width="6" height="6"></rect></g>
<g transform="translate(620,240) scale(3.4333333333333)"><rect width="6" height="6"></rect></g>
<g transform="translate(660,240) scale(3.4333333333333)"><rect width="6" height="6"></rect></g>
<g transform="translate(700,240) scale(3.4333333333333)"><rect width="6" height="6"></rect></g>
<g transform="translate(720,240) scale(3.4333333333333)"><rect width="6" height="6"></rect></g>
<g transform="translate(760,240) scale(3.4333333333333)"><rect width="6" height="6"></rect></g>
<g transform="translate(800,240) scale(3.4333333333333)"><rect width="6" height="6"></rect></g>
<g transform="translate(860,240) scale(3.4333333333333)"><rect width="6" height="6"></rect></g>
<g transform="translate(880,240) scale(3.4333333333333)"><rect width="6" height="6"></rect></g>
<g transform="translate(40,260) scale(3.4333333333333)"><rect width="6" height="6"></rect></g>
<g transform="translate(120,260) scale(3.4333333333333)"><rect width="6" height="6"></rect></g>
<g transform="translate(180,260) scale(3.4333333333333)"><rect width="6" height="6"></rect></g>
<g transform="translate(220,260) scale(3.4333333333333)"><rect width="6" height="6"></rect></g>
<g transform="translate(240,260) scale(3.4333333333333)"><rect width="6" height="6"></rect></g>
<g transform="translate(260,260) scale(3.4333333333333)"><rect width="6" height="6"></rect></g>
<g transform="translate(340,260) scale(3.4333333333333)"><rect width="6" height="6"></rect></g>
<g transform="translate(380,260) scale(3.4333333333333)"><rect width="6" height="6"></rect></g>
<g transform="translate(400,260) scale(3.4333333333333)"><rect width="6" height="6"></rect></g>
<g transform="translate(420,260) scale(3.4333333333333)"><rect width="6" height="6"></rect></g>
<g transform="translate(500,260) scale(3.4333333333333)"><rect width="6" height="6"></rect></g>
<g transform="translate(520,260) scale(3.4333333333333)"><rect width="6" height="6"></rect></g>
<g transform="translate(560,260) scale(3.4333333333333)"><rect width="6" height="6"></rect></g>
<g transform="translate(620,260) scale(3.4333333333333)"><rect width="6" height="6"></rect></g>
<g transform="translate(640,260) scale(3.4333333333333)"><rect width="6" height="6"></rect></g>
<g transform="translate(680,260) scale(3.4333333333333)"><rect width="6" height="6"></rect></g>
<g transform="translate(860,260) scale(3.4333333333333)"><rect width="6" height="6"></rect></g>
<g transform="translate(880,260) scale(3.4333333333333)"><rect width="6" height="6"></rect></g>
<g transform="translate(60,280) scale(3.4333333333333)"><rect width="6" height="6"></rect></g>
<g transform="translate(100,280) scale(3.4333333333333)"><rect width="6" height="6"></rect></g>
<g transform="translate(140,280) scale(3.4333333333333)"><rect width="6" height="6"></rect></g>
<g transform="translate(160,280) scale(3.4333333333333)"><rect width="6" height="6"></rect></g>
<g transform="translate(200,280) scale(3.4333333333333)"><rect width="6" height="6"></rect></g>
<g transform="translate(240,280) scale(3.4333333333333)"><rect width="6" height="6"></rect></g>
<g transform="translate(260,280) scale(3.4333333333333)"><rect width="6" height="6"></rect></g>
<g transform="translate(280,280) scale(3.4333333333333)"><rect width="6" height="6"></rect></g>
<g transform="translate(540,280) scale(3.4333333333333)"><rect width="6" height="6"></rect></g>
<g transform="translate(580,280) scale(3.4333333333333)"><rect width="6" height="6"></rect></g>
<g transform="translate(600,280) scale(3.4333333333333)"><rect width="6" height="6"></rect></g>
<g transform="translate(620,280) scale(3.4333333333333)"><rect width="6" height="6"></rect></g>
<g transform="translate(640,280) scale(3.4333333333333)"><rect width="6" height="6"></rect></g>
<g transform="translate(660,280) scale(3.4333333333333)"><rect width="6" height="6"></rect></g>
<g transform="translate(820,280) scale(3.4333333333333)"><rect width="6" height="6"></rect></g>
<g transform="translate(60,300) scale(3.4333333333333)"><rect width="6" height="6"></rect></g>
<g transform="translate(80,300) scale(3.4333333333333)"><rect width="6" height="6"></rect></g>
<g transform="translate(100,300) scale(3.4333333333333)"><rect width="6" height="6"></rect></g>
<g transform="translate(120,300) scale(3.4333333333333)"><rect width="6" height="6"></rect></g>
<g transform="translate(200,300) scale(3.4333333333333)"><rect width="6" height="6"></rect></g>
<g transform="translate(220,300) scale(3.4333333333333)"><rect width="6" height="6"></rect></g>
<g transform="translate(260,300) scale(3.4333333333333)"><rect width="6" height="6"></rect></g>
<g transform="translate(320,300) scale(3.4333333333333)"><rect width="6" height="6"></rect></g>
<g transform="translate(340,300) scale(3.4333333333333)"><rect width="6" height="6"></rect></g>
<g transform="translate(380,300) scale(3.4333333333333)"><rect width="6" height="6"></rect></g>
<g transform="translate(440,300) scale(3.4333333333333)"><rect width="6" height="6"></rect></g>
<g transform="translate(480,300) scale(3.4333333333333)"><rect width="6" height="6"></rect></g>
<g transform="translate(540,300) scale(3.4333333333333)"><rect width="6" height="6"></rect></g>
<g transform="translate(580,300) scale(3.4333333333333)"><rect width="6" height="6"></rect></g>
<g transform="translate(600,300) scale(3.4333333333333)"><rect width="6" height="6"></rect></g>
<g transform="translate(620,300) scale(3.4333333333333)"><rect width="6" height="6"></rect></g>
<g transform="translate(640,300) scale(3.4333333333333)"><rect width="6" height="6"></rect></g>
<g transform="translate(660,300) scale(3.4333333333333)"><rect width="6" height="6"></rect></g>
<g transform="translate(680,300) scale(3.4333333333333)"><rect width="6" height="6"></rect></g>
<g transform="translate(740,300) scale(3.4333333333333)"><rect width="6" height="6"></rect></g>
<g transform="translate(760,300) scale(3.4333333333333)"><rect width="6" height="6"></rect></g>
<g transform="translate(780,300) scale(3.4333333333333)"><rect width="6" height="6"></rect></g>
<g transform="translate(820,300) scale(3.4333333333333)"><rect width="6" height="6"></rect></g>
<g transform="translate(900,300) scale(3.4333333333333)"><rect width="6" height="6"></rect></g>
<g transform="translate(920,300) scale(3.4333333333333)"><rect width="6" height="6"></rect></g>
<g transform="translate(80,320) scale(3.4333333333333)"><rect width="6" height="6"></rect></g>
<g transform="translate(120,320) scale(3.4333333333333)"><rect width="6" height="6"></rect></g>
<g transform="translate(160,320) scale(3.4333333333333)"><rect width="6" height="6"></rect></g>
<g transform="translate(200,320) scale(3.4333333333333)"><rect width="6" height="6"></rect></g>
<g transform="translate(260,320) scale(3.4333333333333)"><rect width="6" height="6"></rect></g>
<g transform="translate(280,320) scale(3.4333333333333)"><rect width="6" height="6"></rect></g>
<g transform="translate(320,320) scale(3.4333333333333)"><rect width="6" height="6"></rect></g>
<g transform="translate(360,320) scale(3.4333333333333)"><rect width="6" height="6"></rect></g>
<g transform="translate(380,320) scale(3.4333333333333)"><rect width="6" height="6"></rect></g>
<g transform="translate(420,320) scale(3.4333333333333)"><rect width="6" height="6"></rect></g>
<g transform="translate(440,320) scale(3.4333333333333)"><rect width="6" height="6"></rect></g>
<g transform="translate(480,320) scale(3.4333333333333)"><rect width="6" height="6"></rect></g>
<g transform="translate(500,320) scale(3.4333333333333)"><rect width="6" height="6"></rect></g>
<g transform="translate(520,320) scale(3.4333333333333)"><rect width="6" height="6"></rect></g>
<g transform="translate(540,320) scale(3.4333333333333)"><rect width="6" height="6"></rect></g>
<g transform="translate(580,320) scale(3.4333333333333)"><rect width="6" height="6"></rect></g>
<g transform="translate(600,320) scale(3.4333333333333)"><rect width="6" height="6"></rect></g>
<g transform="translate(660,320) scale(3.4333333333333)"><rect width="6" height="6"></rect></g>
<g transform="translate(680,320) scale(3.4333333333333)"><rect width="6" height="6"></rect></g>
<g transform="translate(700,320) scale(3.4333333333333)"><rect width="6" height="6"></rect></g>
<g transform="translate(720,320) scale(3.4333333333333)"><rect width="6" height="6"></rect></g>
<g transform="translate(760,320) scale(3.4333333333333)"><rect width="6" height="6"></rect></g>
<g transform="translate(780,320) scale(3.4333333333333)"><rect width="6" height="6"></rect></g>
<g transform="translate(800,320) scale(3.4333333333333)"><rect width="6" height="6"></rect></g>
<g transform="translate(880,320) scale(3.4333333333333)"><rect width="6" height="6"></rect></g>
<g transform="translate(900,320) scale(3.4333333333333)"><rect width="6" height="6"></rect></g>
<g transform="translate(40,340) scale(3.4333333333333)"><rect width="6" height="6"></rect></g>
<g transform="translate(60,340) scale(3.4333333333333)"><rect width="6" height="6"></rect></g>
<g transform="translate(80,340) scale(3.4333333333333)"><rect width="6" height="6"></rect></g>
<g transform="translate(120,340) scale(3.4333333333333)"><rect width="6" height="6"></rect></g>
<g transform="translate(180,340) scale(3.4333333333333)"><rect width="6" height="6"></rect></g>
<g transform="translate(200,340) scale(3.4333333333333)"><rect width="6" height="6"></rect></g>
<g transform="translate(220,340) scale(3.4333333333333)"><rect width="6" height="6"></rect></g>
<g transform="translate(240,340) scale(3.4333333333333)"><rect width="6" height="6"></rect></g>
<g transform="translate(260,340) scale(3.4333333333333)"><rect width="6" height="6"></rect></g>
<g transform="translate(280,340) scale(3.4333333333333)"><rect width="6" height="6"></rect></g>
<g transform="translate(300,340) scale(3.4333333333333)"><rect width="6" height="6"></rect></g>
<g transform="translate(340,340) scale(3.4333333333333)"><rect width="6" height="6"></rect></g>
<g transform="translate(360,340) scale(3.4333333333333)"><rect width="6" height="6"></rect></g>
<g transform="translate(380,340) scale(3.4333333333333)"><rect width="6" height="6"></rect></g>
<g transform="translate(400,340) scale(3.4333333333333)"><rect width="6" height="6"></rect></g>
<g transform="translate(480,340) scale(3.4333333333333)"><rect width="6" height="6"></rect></g>
<g transform="translate(580,340) scale(3.4333333333333)"><rect width="6" height="6"></rect></g>
<g transform="translate(600,340) scale(3.4333333333333)"><rect width="6" height="6"></rect></g>
<g transform="translate(620,340) scale(3.4333333333333)"><rect width="6" height="6"></rect></g>
<g transform="translate(680,340) scale(3.4333333333333)"><rect width="6" height="6"></rect></g>
<g transform="translate(700,340) scale(3.4333333333333)"><rect width="6" height="6"></rect></g>
<g transform="translate(740,340) scale(3.4333333333333)"><rect width="6" height="6"></rect></g>
<g transform="translate(760,340) scale(3.4333333333333)"><rect width="6" height="6"></rect></g>
<g transform="translate(800,340) scale(3.4333333333333)"><rect width="6" height="6"></rect></g>
<g transform="translate(820,340) scale(3.4333333333333)"><rect width="6" height="6"></rect></g>
<g transform="translate(840,340) scale(3.4333333333333)"><rect width="6" height="6"></rect></g>
<g transform="translate(860,340) scale(3.4333333333333)"><rect width="6" height="6"></rect></g>
<g transform="translate(880,340) scale(3.4333333333333)"><rect width="6" height="6"></rect></g>
<g transform="translate(40,360) scale(3.4333333333333)"><rect width="6" height="6"></rect></g>
<g transform="translate(140,360) scale(3.4333333333333)"><rect width="6" height="6"></rect></g>
<g transform="translate(160,360) scale(3.4333333333333)"><rect width="6" height="6"></rect></g>
<g transform="translate(200,360) scale(3.4333333333333)"><rect width="6" height="6"></rect></g>
<g transform="translate(220,360) scale(3.4333333333333)"><rect width="6" height="6"></rect></g>
<g transform="translate(240,360) scale(3.4333333333333)"><rect width="6" height="6"></rect></g>
<g transform="translate(260,360) scale(3.4333333333333)"><rect width="6" height="6"></rect></g>
<g transform="translate(280,360) scale(3.4333333333333)"><rect width="6" height="6"></rect></g>
<g transform="translate(300,360) scale(3.4333333333333)"><rect width="6" height="6"></rect></g>
<g transform="translate(340,360) scale(3.4333333333333)"><rect width="6" height="6"></rect></g>
<g transform="translate(380,360) scale(3.4333333333333)"><rect width="6" height="6"></rect></g>
<g transform="translate(420,360) scale(3.4333333333333)"><rect width="6" height="6"></rect></g>
<g transform="translate(440,360) scale(3.4333333333333)"><rect width="6" height="6"></rect></g>
<g transform="translate(460,360) scale(3.4333333333333)"><rect width="6" height="6"></rect></g>
<g transform="translate(520,360) scale(3.4333333333333)"><rect width="6" height="6"></rect></g>
<g transform="translate(600,360) scale(3.4333333333333)"><rect width="6" height="6"></rect></g>
<g transform="translate(660,360) scale(3.4333333333333)"><rect width="6" height="6"></rect></g>
<g transform="translate(740,360) scale(3.4333333333333)"><rect width="6" height="6"></rect></g>
<g transform="translate(780,360) scale(3.4333333333333)"><rect width="6" height="6"></rect></g>
<g transform="translate(860,360) scale(3.4333333333333)"><rect width="6" height="6"></rect></g>
<g transform="translate(140,380) scale(3.4333333333333)"><rect width="6" height="6"></rect></g>
<g transform="translate(220,380) scale(3.4333333333333)"><rect width="6" height="6"></rect></g>
<g transform="translate(240,380) scale(3.4333333333333)"><rect width="6" height="6"></rect></g>
<g transform="translate(260,380) scale(3.4333333333333)"><rect width="6" height="6"></rect></g>
<g transform="translate(340,380) scale(3.4333333333333)"><rect width="6" height="6"></rect></g>
<g transform="translate(360,380) scale(3.4333333333333)"><rect width="6" height="6"></rect></g>
<g transform="translate(400,380) scale(3.4333333333333)"><rect width="6" height="6"></rect></g>
<g transform="translate(420,380) scale(3.4333333333333)"><rect width="6" height="6"></rect></g>
<g transform="translate(460,380) scale(3.4333333333333)"><rect width="6" height="6"></rect></g>
<g transform="translate(500,380) scale(3.4333333333333)"><rect width="6" height="6"></rect></g>
<g transform="translate(540,380) scale(3.4333333333333)"><rect width="6" height="6"></rect></g>
<g transform="translate(580,380) scale(3.4333333333333)"><rect width="6" height="6"></rect></g>
<g transform="translate(620,380) scale(3.4333333333333)"><rect width="6" height="6"></rect></g>
<g transform="translate(660,380) scale(3.4333333333333)"><rect width="6" height="6"></rect></g>
<g transform="translate(740,380) scale(3.4333333333333)"><rect width="6" height="6"></rect></g>
<g transform="translate(760,380) scale(3.4333333333333)"><rect width="6" height="6"></rect></g>
<g transform="translate(780,380) scale(3.4333333333333)"><rect width="6" height="6"></rect></g>
<g transform="translate(840,380) scale(3.4333333333333)"><rect width="6" height="6"></rect></g>
<g transform="translate(880,380) scale(3.4333333333333)"><rect width="6" height="6"></rect></g>
<g transform="translate(920,380) scale(3.4333333333333)"><rect width="6" height="6"></rect></g>
<g transform="translate(40,400) scale(3.4333333333333)"><rect width="6" height="6"></rect></g>
<g transform="translate(120,400) scale(3.4333333333333)"><rect width="6" height="6"></rect></g>
<g transform="translate(160,400) scale(3.4333333333333)"><rect width="6" height="6"></rect></g>
<g transform="translate(180,400) scale(3.4333333333333)"><rect width="6" height="6"></rect></g>
<g transform="translate(220,400) scale(3.4333333333333)"><rect width="6" height="6"></rect></g>
<g transform="translate(240,400) scale(3.4333333333333)"><rect width="6" height="6"></rect></g>
<g transform="translate(320,400) scale(3.4333333333333)"><rect width="6" height="6"></rect></g>
<g transform="translate(340,400) scale(3.4333333333333)"><rect width="6" height="6"></rect></g>
<g transform="translate(360,400) scale(3.4333333333333)"><rect width="6" height="6"></rect></g>
<g transform="translate(420,400) scale(3.4333333333333)"><rect width="6" height="6"></rect></g>
<g transform="translate(540,400) scale(3.4333333333333)"><rect width="6" height="6"></rect></g>
<g transform="translate(640,400) scale(3.4333333333333)"><rect width="6" height="6"></rect></g>
<g transform="translate(680,400) scale(3.4333333333333)"><rect width="6" height="6"></rect></g>
<g transform="translate(720,400) scale(3.4333333333333)"><rect width="6" height="6"></rect></g>
<g transform="translate(760,400) scale(3.4333333333333)"><rect width="6" height="6"></rect></g>
<g transform="translate(780,400) scale(3.4333333333333)"><rect width="6" height="6"></rect></g>
<g transform="translate(800,400) scale(3.4333333333333)"><rect width="6" height="6"></rect></g>
<g transform="translate(820,400) scale(3.4333333333333)"><rect width="6" height="6"></rect></g>
<g transform="translate(860,400) scale(3.4333333333333)"><rect width="6" height="6"></rect></g>
<g transform="translate(880,400) scale(3.4333333333333)"><rect width="6" height="6"></rect></g>
<g transform="translate(900,400) scale(3.4333333333333)"><rect width="6" height="6"></rect></g>
<g transform="translate(60,420) scale(3.4333333333333)"><rect width="6" height="6"></rect></g>
<g transform="translate(80,420) scale(3.4333333333333)"><rect width="6" height="6"></rect></g>
<g transform="translate(120,420) scale(3.4333333333333)"><rect width="6" height="6"></rect></g>
<g transform="translate(140,420) scale(3.4333333333333)"><rect width="6" height="6"></rect></g>
<g transform="translate(180,420) scale(3.4333333333333)"><rect width="6" height="6"></rect></g>
<g transform="translate(220,420) scale(3.4333333333333)"><rect width="6" height="6"></rect></g>
<g transform="translate(260,420) scale(3.4333333333333)"><rect width="6" height="6"></rect></g>
<g transform="translate(300,420) scale(3.4333333333333)"><rect width="6" height="6"></rect></g>
<g transform="translate(320,420) scale(3.4333333333333)"><rect width="6" height="6"></rect></g>
<g transform="translate(360,420) scale(3.4333333333333)"><rect width="6" height="6"></rect></g>
<g transform="translate(380,420) scale(3.4333333333333)"><rect width="6" height="6"></rect></g>
<g transform="translate(400,420) scale(3.4333333333333)"><rect width="6" height="6"></rect></g>
<g transform="translate(420,420) scale(3.4333333333333)"><rect width="6" height="6"></rect></g>
<g transform="translate(440,420) scale(3.4333333333333)"><rect width="6" height="6"></rect></g>
<g transform="translate(480,420) scale(3.4333333333333)"><rect width="6" height="6"></rect></g>
<g transform="translate(500,420) scale(3.4333333333333)"><rect width="6" height="6"></rect></g>
<g transform="translate(520,420) scale(3.4333333333333)"><rect width="6" height="6"></rect></g>
<g transform="translate(540,420) scale(3.4333333333333)"><rect width="6" height="6"></rect></g>
<g transform="translate(580,420) scale(3.4333333333333)"><rect width="6" height="6"></rect></g>
<g transform="translate(640,420) scale(3.4333333333333)"><rect width="6" height="6"></rect></g>
<g transform="translate(680,420) scale(3.4333333333333)"><rect width="6" height="6"></rect></g>
<g transform="translate(780,420) scale(3.4333333333333)"><rect width="6" height="6"></rect></g>
<g transform="translate(820,420) scale(3.4333333333333)"><rect width="6" height="6"></rect></g>
<g transform="translate(840,420) scale(3.4333333333333)"><rect width="6" height="6"></rect></g>
<g transform="translate(880,420) scale(3.4333333333333)"><rect width="6" height="6"></rect></g>
<g transform="translate(900,420) scale(3.4333333333333)"><rect width="6" height="6"></rect></g>
<g transform="translate(920,420) scale(3.4333333333333)"><rect width="6" height="6"></rect></g>
<g transform="translate(40,440) scale(3.4333333333333)"><rect width="6" height="6"></rect></g>
<g transform="translate(60,440) scale(3.4333333333333)"><rect width="6" height="6"></rect></g>
<g transform="translate(80,440) scale(3.4333333333333)"><rect width="6" height="6"></rect></g>
<g transform="translate(100,440) scale(3.4333333333333)"><rect width="6" height="6"></rect></g>
<g transform="translate(120,440) scale(3.4333333333333)"><rect width="6" height="6"></rect></g>
<g transform="translate(140,440) scale(3.4333333333333)"><rect width="6" height="6"></rect></g>
<g transform="translate(160,440) scale(3.4333333333333)"><rect width="6" height="6"></rect></g>
<g transform="translate(180,440) scale(3.4333333333333)"><rect width="6" height="6"></rect></g>
<g transform="translate(200,440) scale(3.4333333333333)"><rect width="6" height="6"></rect></g>
<g transform="translate(220,440) scale(3.4333333333333)"><rect width="6" height="6"></rect></g>
<g transform="translate(240,440) scale(3.4333333333333)"><rect width="6" height="6"></rect></g>
<g transform="translate(260,440) scale(3.4333333333333)"><rect width="6" height="6"></rect></g>
<g transform="translate(340,440) scale(3.4333333333333)"><rect width="6" height="6"></rect></g>
<g transform="translate(400,440) scale(3.4333333333333)"><rect width="6" height="6"></rect></g>
<g transform="translate(440,440) scale(3.4333333333333)"><rect width="6" height="6"></rect></g>
<g transform="translate(460,440) scale(3.4333333333333)"><rect width="6" height="6"></rect></g>
<g transform="translate(480,440) scale(3.4333333333333)"><rect width="6" height="6"></rect></g>
<g transform="translate(500,440) scale(3.4333333333333)"><rect width="6" height="6"></rect></g>
<g transform="translate(520,440) scale(3.4333333333333)"><rect width="6" height="6"></rect></g>
<g transform="translate(540,440) scale(3.4333333333333)"><rect width="6" height="6"></rect></g>
<g transform="translate(620,440) scale(3.4333333333333)"><rect width="6" height="6"></rect></g>
<g transform="translate(640,440) scale(3.4333333333333)"><rect width="6" height="6"></rect></g>
<g transform="translate(660,440) scale(3.4333333333333)"><rect width="6" height="6"></rect></g>
<g transform="translate(700,440) scale(3.4333333333333)"><rect width="6" height="6"></rect></g>
<g transform="translate(760,440) scale(3.4333333333333)"><rect width="6" height="6"></rect></g>
<g transform="translate(780,440) scale(3.4333333333333)"><rect width="6" height="6"></rect></g>
<g transform="translate(800,440) scale(3.4333333333333)"><rect width="6" height="6"></rect></g>
<g transform="translate(820,440) scale(3.4333333333333)"><rect width="6" height="6"></rect></g>
<g transform="translate(840,440) scale(3.4333333333333)"><rect width="6" height="6"></rect></g>
<g transform="translate(60,460) scale(3.4333333333333)"><rect width="6" height="6"></rect></g>
<g transform="translate(120,460) scale(3.4333333333333)"><rect width="6" height="6"></rect></g>
<g transform="translate(200,460) scale(3.4333333333333)"><rect width="6" height="6"></rect></g>
<g transform="translate(280,460) scale(3.4333333333333)"><rect width="6" height="6"></rect></g>
<g transform="translate(380,460) scale(3.4333333333333)"><rect width="6" height="6"></rect></g>
<g transform="translate(400,460) scale(3.4333333333333)"><rect width="6" height="6"></rect></g>
<g transform="translate(440,460) scale(3.4333333333333)"><rect width="6" height="6"></rect></g>
<g transform="translate(520,460) scale(3.4333333333333)"><rect width="6" height="6"></rect></g>
<g transform="translate(560,460) scale(3.4333333333333)"><rect width="6" height="6"></rect></g>
<g transform="translate(580,460) scale(3.4333333333333)"><rect width="6" height="6"></rect></g>
<g transform="translate(600,460) scale(3.4333333333333)"><rect width="6" height="6"></rect></g>
<g transform="translate(640,460) scale(3.4333333333333)"><rect width="6" height="6"></rect></g>
<g transform="translate(700,460) scale(3.4333333333333)"><rect width="6" height="6"></rect></g>
<g transform="translate(740,460) scale(3.4333333333333)"><rect width="6" height="6"></rect></g>
<g transform="translate(760,460) scale(3.4333333333333)"><rect width="6" height="6"></rect></g>
<g transform="translate(840,460) scale(3.4333333333333)"><rect width="6" height="6"></rect></g>
<g transform="translate(880,460) scale(3.4333333333333)"><rect width="6" height="6"></rect></g>
<g transform="translate(920,460) scale(3.4333333333333)"><rect width="6" height="6"></rect></g>
<g transform="translate(60,480) scale(3.4333333333333)"><rect width="6" height="6"></rect></g>
<g transform="translate(100,480) scale(3.4333333333333)"><rect width="6" height="6"></rect></g>
<g transform="translate(120,480) scale(3.4333333333333)"><rect width="6" height="6"></rect></g>
<g transform="translate(160,480) scale(3.4333333333333)"><rect width="6" height="6"></rect></g>
<g transform="translate(200,480) scale(3.4333333333333)"><rect width="6" height="6"></rect></g>
<g transform="translate(280,480) scale(3.4333333333333)"><rect width="6" height="6"></rect></g>
<g transform="translate(380,480) scale(3.4333333333333)"><rect width="6" height="6"></rect></g>
<g transform="translate(420,480) scale(3.4333333333333)"><rect width="6" height="6"></rect></g>
<g transform="translate(440,480) scale(3.4333333333333)"><rect width="6" height="6"></rect></g>
<g transform="translate(480,480) scale(3.4333333333333)"><rect width="6" height="6"></rect></g>
<g transform="translate(520,480) scale(3.4333333333333)"><rect width="6" height="6"></rect></g>
<g transform="translate(540,480) scale(3.4333333333333)"><rect width="6" height="6"></rect></g>
<g transform="translate(560,480) scale(3.4333333333333)"><rect width="6" height="6"></rect></g>
<g transform="translate(620,480) scale(3.4333333333333)"><rect width="6" height="6"></rect></g>
<g transform="translate(640,480) scale(3.4333333333333)"><rect width="6" height="6"></rect></g>
<g transform="translate(680,480) scale(3.4333333333333)"><rect width="6" height="6"></rect></g>
<g transform="translate(700,480) scale(3.4333333333333)"><rect width="6" height="6"></rect></g>
<g transform="translate(760,480) scale(3.4333333333333)"><rect width="6" height="6"></rect></g>
<g transform="translate(800,480) scale(3.4333333333333)"><rect width="6" height="6"></rect></g>
<g transform="translate(840,480) scale(3.4333333333333)"><rect width="6" height="6"></rect></g>
<g transform="translate(900,480) scale(3.4333333333333)"><rect width="6" height="6"></rect></g>
<g transform="translate(40,500) scale(3.4333333333333)"><rect width="6" height="6"></rect></g>
<g transform="translate(80,500) scale(3.4333333333333)"><rect width="6" height="6"></rect></g>
<g transform="translate(120,500) scale(3.4333333333333)"><rect width="6" height="6"></rect></g>
<g transform="translate(200,500) scale(3.4333333333333)"><rect width="6" height="6"></rect></g>
<g transform="translate(220,500) scale(3.4333333333333)"><rect width="6" height="6"></rect></g>
<g transform="translate(240,500) scale(3.4333333333333)"><rect width="6" height="6"></rect></g>
<g transform="translate(260,500) scale(3.4333333333333)"><rect width="6" height="6"></rect></g>
<g transform="translate(280,500) scale(3.4333333333333)"><rect width="6" height="6"></rect></g>
<g transform="translate(300,500) scale(3.4333333333333)"><rect width="6" height="6"></rect></g>
<g transform="translate(340,500) scale(3.4333333333333)"><rect width="6" height="6"></rect></g>
<g transform="translate(400,500) scale(3.4333333333333)"><rect width="6" height="6"></rect></g>
<g transform="translate(420,500) scale(3.4333333333333)"><rect width="6" height="6"></rect></g>
<g transform="translate(440,500) scale(3.4333333333333)"><rect width="6" height="6"></rect></g>
<g transform="translate(520,500) scale(3.4333333333333)"><rect width="6" height="6"></rect></g>
<g transform="translate(580,500) scale(3.4333333333333)"><rect width="6" height="6"></rect></g>
<g transform="translate(720,500) scale(3.4333333333333)"><rect width="6" height="6"></rect></g>
<g transform="translate(760,500) scale(3.4333333333333)"><rect width="6" height="6"></rect></g>
<g transform="translate(840,500) scale(3.4333333333333)"><rect width="6" height="6"></rect></g>
<g transform="translate(860,500) scale(3.4333333333333)"><rect width="6" height="6"></rect></g>
<g transform="translate(880,500) scale(3.4333333333333)"><rect width="6" height="6"></rect></g>
<g transform="translate(920,500) scale(3.4333333333333)"><rect width="6" height="6"></rect></g>
<g transform="translate(40,520) scale(3.4333333333333)"><rect width="6" height="6"></rect></g>
<g transform="translate(60,520) scale(3.4333333333333)"><rect width="6" height="6"></rect></g>
<g transform="translate(80,520) scale(3.4333333333333)"><rect width="6" height="6"></rect></g>
<g transform="translate(120,520) scale(3.4333333333333)"><rect width="6" height="6"></rect></g>
<g transform="translate(140,520) scale(3.4333333333333)"><rect width="6" height="6"></rect></g>
<g transform="translate(160,520) scale(3.4333333333333)"><rect width="6" height="6"></rect></g>
<g transform="translate(180,520) scale(3.4333333333333)"><rect width="6" height="6"></rect></g>
<g transform="translate(200,520) scale(3.4333333333333)"><rect width="6" height="6"></rect></g>
<g transform="translate(220,520) scale(3.4333333333333)"><rect width="6" height="6"></rect></g>
<g transform="translate(260,520) scale(3.4333333333333)"><rect width="6" height="6"></rect></g>
<g transform="translate(280,520) scale(3.4333333333333)"><rect width="6" height="6"></rect></g>
<g transform="translate(380,520) scale(3.4333333333333)"><rect width="6" height="6"></rect></g>
<g transform="translate(400,520) scale(3.4333333333333)"><rect width="6" height="6"></rect></g>
<g transform="translate(420,520) scale(3.4333333333333)"><rect width="6" height="6"></rect></g>
<g transform="translate(440,520) scale(3.4333333333333)"><rect width="6" height="6"></rect></g>
<g transform="translate(460,520) scale(3.4333333333333)"><rect width="6" height="6"></rect></g>
<g transform="translate(480,520) scale(3.4333333333333)"><rect width="6" height="6"></rect></g>
<g transform="translate(500,520) scale(3.4333333333333)"><rect width="6" height="6"></rect></g>
<g transform="translate(520,520) scale(3.4333333333333)"><rect width="6" height="6"></rect></g>
<g transform="translate(560,520) scale(3.4333333333333)"><rect width="6" height="6"></rect></g>
<g transform="translate(600,520) scale(3.4333333333333)"><rect width="6" height="6"></rect></g>
<g transform="translate(620,520) scale(3.4333333333333)"><rect width="6" height="6"></rect></g>
<g transform="translate(640,520) scale(3.4333333333333)"><rect width="6" height="6"></rect></g>
<g transform="translate(660,520) scale(3.4333333333333)"><rect width="6" height="6"></rect></g>
<g transform="translate(680,520) scale(3.4333333333333)"><rect width="6" height="6"></rect></g>
<g transform="translate(760,520) scale(3.4333333333333)"><rect width="6" height="6"></rect></g>
<g transform="translate(780,520) scale(3.4333333333333)"><rect width="6" height="6"></rect></g>
<g transform="translate(800,520) scale(3.4333333333333)"><rect width="6" height="6"></rect></g>
<g transform="translate(820,520) scale(3.4333333333333)"><rect width="6" height="6"></rect></g>
<g transform="translate(840,520) scale(3.4333333333333)"><rect width="6" height="6"></rect></g>
<g transform="translate(900,520) scale(3.4333333333333)"><rect width="6" height="6"></rect></g>
<g transform="translate(40,540) scale(3.4333333333333)"><rect width="6" height="6"></rect></g>
<g transform="translate(100,540) scale(3.4333333333333)"><rect width="6" height="6"></rect></g>
<g transform="translate(120,540) scale(3.4333333333333)"><rect width="6" height="6"></rect></g>
<g transform="translate(140,540) scale(3.4333333333333)"><rect width="6" height="6"></rect></g>
<g transform="translate(220,540) scale(3.4333333333333)"><rect width="6" height="6"></rect></g>
<g transform="translate(280,540) scale(3.4333333333333)"><rect width="6" height="6"></rect></g>
<g transform="translate(340,540) scale(3.4333333333333)"><rect width="6" height="6"></rect></g>
<g transform="translate(360,540) scale(3.4333333333333)"><rect width="6" height="6"></rect></g>
<g transform="translate(400,540) scale(3.4333333333333)"><rect width="6" height="6"></rect></g>
<g transform="translate(460,540) scale(3.4333333333333)"><rect width="6" height="6"></rect></g>
<g transform="translate(560,540) scale(3.4333333333333)"><rect width="6" height="6"></rect></g>
<g transform="translate(600,540) scale(3.4333333333333)"><rect width="6" height="6"></rect></g>
<g transform="translate(620,540) scale(3.4333333333333)"><rect width="6" height="6"></rect></g>
<g transform="translate(680,540) scale(3.4333333333333)"><rect width="6" height="6"></rect></g>
<g transform="translate(740,540) scale(3.4333333333333)"><rect width="6" height="6"></rect></g>
<g transform="translate(760,540) scale(3.4333333333333)"><rect width="6" height="6"></rect></g>
<g transform="translate(780,540) scale(3.4333333333333)"><rect width="6" height="6"></rect></g>
<g transform="translate(860,540) scale(3.4333333333333)"><rect width="6" height="6"></rect></g>
<g transform="translate(920,540) scale(3.4333333333333)"><rect width="6" height="6"></rect></g>
<g transform="translate(40,560) scale(3.4333333333333)"><rect width="6" height="6"></rect></g>
<g transform="translate(80,560) scale(3.4333333333333)"><rect width="6" height="6"></rect></g>
<g transform="translate(100,560) scale(3.4333333333333)"><rect width="6" height="6"></rect></g>
<g transform="translate(120,560) scale(3.4333333333333)"><rect width="6" height="6"></rect></g>
<g transform="translate(140,560) scale(3.4333333333333)"><rect width="6" height="6"></rect></g>
<g transform="translate(160,560) scale(3.4333333333333)"><rect width="6" height="6"></rect></g>
<g transform="translate(180,560) scale(3.4333333333333)"><rect width="6" height="6"></rect></g>
<g transform="translate(220,560) scale(3.4333333333333)"><rect width="6" height="6"></rect></g>
<g transform="translate(240,560) scale(3.4333333333333)"><rect width="6" height="6"></rect></g>
<g transform="translate(260,560) scale(3.4333333333333)"><rect width="6" height="6"></rect></g>
<g transform="translate(280,560) scale(3.4333333333333)"><rect width="6" height="6"></rect></g>
<g transform="translate(300,560) scale(3.4333333333333)"><rect width="6" height="6"></rect></g>
<g transform="translate(340,560) scale(3.4333333333333)"><rect width="6" height="6"></rect></g>
<g transform="translate(420,560) scale(3.4333333333333)"><rect width="6" height="6"></rect></g>
<g transform="translate(440,560) scale(3.4333333333333)"><rect width="6" height="6"></rect></g>
<g transform="translate(460,560) scale(3.4333333333333)"><rect width="6" height="6"></rect></g>
<g transform="translate(520,560) scale(3.4333333333333)"><rect width="6" height="6"></rect></g>
<g transform="translate(540,560) scale(3.4333333333333)"><rect width="6" height="6"></rect></g>
<g transform="translate(560,560) scale(3.4333333333333)"><rect width="6" height="6"></rect></g>
<g transform="translate(660,560) scale(3.4333333333333)"><rect width="6" height="6"></rect></g>
<g transform="translate(680,560) scale(3.4333333333333)"><rect width="6" height="6"></rect></g>
<g transform="translate(700,560) scale(3.4333333333333)"><rect width="6" height="6"></rect></g>
<g transform="translate(720,560) scale(3.4333333333333)"><rect width="6" height="6"></rect></g>
<g transform="translate(740,560) scale(3.4333333333333)"><rect width="6" height="6"></rect></g>
<g transform="translate(780,560) scale(3.4333333333333)"><rect width="6" height="6"></rect></g>
<g transform="translate(840,560) scale(3.4333333333333)"><rect width="6" height="6"></rect></g>
<g transform="translate(860,560) scale(3.4333333333333)"><rect width="6" height="6"></rect></g>
<g transform="translate(880,560) scale(3.4333333333333)"><rect width="6" height="6"></rect></g>
<g transform="translate(900,560) scale(3.4333333333333)"><rect width="6" height="6"></rect></g>
<g transform="translate(60,580) scale(3.4333333333333)"><rect width="6" height="6"></rect></g>
<g transform="translate(100,580) scale(3.4333333333333)"><rect width="6" height="6"></rect></g>
<g transform="translate(140,580) scale(3.4333333333333)"><rect width="6" height="6"></rect></g>
<g transform="translate(180,580) scale(3.4333333333333)"><rect width="6" height="6"></rect></g>
<g transform="translate(200,580) scale(3.4333333333333)"><rect width="6" height="6"></rect></g>
<g transform="translate(240,580) scale(3.4333333333333)"><rect width="6" height="6"></rect></g>
<g transform="translate(260,580) scale(3.4333333333333)"><rect width="6" height="6"></rect></g>
<g transform="translate(340,580) scale(3.4333333333333)"><rect width="6" height="6"></rect></g>
<g transform="translate(360,580) scale(3.4333333333333)"><rect width="6" height="6"></rect></g>
<g transform="translate(380,580) scale(3.4333333333333)"><rect width="6" height="6"></rect></g>
<g transform="translate(420,580) scale(3.4333333333333)"><rect width="6" height="6"></rect></g>
<g transform="translate(460,580) scale(3.4333333333333)"><rect width="6" height="6"></rect></g>
<g transform="translate(520,580) scale(3.4333333333333)"><rect width="6" height="6"></rect></g>
<g transform="translate(540,580) scale(3.4333333333333)"><rect width="6" height="6"></rect></g>
<g transform="translate(560,580) scale(3.4333333333333)"><rect width="6" height="6"></rect></g>
<g transform="translate(620,580) scale(3.4333333333333)"><rect width="6" height="6"></rect></g>
<g transform="translate(640,580) scale(3.4333333333333)"><rect width="6" height="6"></rect></g>
<g transform="translate(680,580) scale(3.4333333333333)"><rect width="6" height="6"></rect></g>
<g transform="translate(720,580) scale(3.4333333333333)"><rect width="6" height="6"></rect></g>
<g transform="translate(740,580) scale(3.4333333333333)"><rect width="6" height="6"></rect></g>
<g transform="translate(800,580) scale(3.4333333333333)"><rect width="6" height="6"></rect></g>
<g transform="translate(860,580) scale(3.4333333333333)"><rect width="6" height="6"></rect></g>
<g transform="translate(880,580) scale(3.4333333333333)"><rect width="6" height="6"></rect></g>
<g transform="translate(920,580) scale(3.4333333333333)"><rect width="6" height="6"></rect></g>
<g transform="translate(120,600) scale(3.4333333333333)"><rect width="6" height="6"></rect></g>
<g transform="translate(160,600) scale(3.4333333333333)"><rect width="6" height="6"></rect></g>
<g transform="translate(180,600) scale(3.4333333333333)"><rect width="6" height="6"></rect></g>
<g transform="translate(280,600) scale(3.4333333333333)"><rect width="6" height="6"></rect></g>
<g transform="translate(340,600) scale(3.4333333333333)"><rect width="6" height="6"></rect></g>
<g transform="translate(380,600) scale(3.4333333333333)"><rect width="6" height="6"></rect></g>
<g transform="translate(400,600) scale(3.4333333333333)"><rect width="6" height="6"></rect></g>
<g transform="translate(420,600) scale(3.4333333333333)"><rect width="6" height="6"></rect></g>
<g transform="translate(500,600) scale(3.4333333333333)"><rect width="6" height="6"></rect></g>
<g transform="translate(540,600) scale(3.4333333333333)"><rect width="6" height="6"></rect></g>
<g transform="translate(580,600) scale(3.4333333333333)"><rect width="6" height="6"></rect></g>
<g transform="translate(600,600) scale(3.4333333333333)"><rect width="6" height="6"></rect></g>
<g transform="translate(660,600) scale(3.4333333333333)"><rect width="6" height="6"></rect></g>
<g transform="translate(720,600) scale(3.4333333333333)"><rect width="6" height="6"></rect></g>
<g transform="translate(760,600) scale(3.4333333333333)"><rect width="6" height="6"></rect></g>
<g transform="translate(800,600) scale(3.4333333333333)"><rect width="6" height="6"></rect></g>
<g transform="translate(840,600) scale(3.4333333333333)"><rect width="6" height="6"></rect></g>
<g transform="translate(900,600) scale(3.4333333333333)"><rect width="6" height="6"></rect></g>
<g transform="translate(40,620) scale(3.4333333333333)"><rect width="6" height="6"></rect></g>
<g transform="translate(60,620) scale(3.4333333333333)"><rect width="6" height="6"></rect></g>
<g transform="translate(80,620) scale(3.4333333333333)"><rect width="6" height="6"></rect></g>
<g transform="translate(100,620) scale(3.4333333333333)"><rect width="6" height="6"></rect></g>
<g transform="translate(140,620) scale(3.4333333333333)"><rect width="6" height="6"></rect></g>
<g transform="translate(180,620) scale(3.4333333333333)"><rect width="6" height="6"></rect></g>
<g transform="translate(200,620) scale(3.4333333333333)"><rect width="6" height="6"></rect></g>
<g transform="translate(220,620) scale(3.4333333333333)"><rect width="6" height="6"></rect></g>
<g transform="translate(240,620) scale(3.4333333333333)"><rect width="6" height="6"></rect></g>
<g transform="translate(260,620) scale(3.4333333333333)"><rect width="6" height="6"></rect></g>
<g transform="translate(300,620) scale(3.4333333333333)"><rect width="6" height="6"></rect></g>
<g transform="translate(340,620) scale(3.4333333333333)"><rect width="6" height="6"></rect></g>
<g transform="translate(360,620) scale(3.4333333333333)"><rect width="6" height="6"></rect></g>
<g transform="translate(380,620) scale(3.4333333333333)"><rect width="6" height="6"></rect></g>
<g transform="translate(400,620) scale(3.4333333333333)"><rect width="6" height="6"></rect></g>
<g transform="translate(440,620) scale(3.4333333333333)"><rect width="6" height="6"></rect></g>
<g transform="translate(480,620) scale(3.4333333333333)"><rect width="6" height="6"></rect></g>
<g transform="translate(500,620) scale(3.4333333333333)"><rect width="6" height="6"></rect></g>
<g transform="translate(520,620) scale(3.4333333333333)"><rect width="6" height="6"></rect></g>
<g transform="translate(540,620) scale(3.4333333333333)"><rect width="6" height="6"></rect></g>
<g transform="translate(560,620) scale(3.4333333333333)"><rect width="6" height="6"></rect></g>
<g transform="translate(580,620) scale(3.4333333333333)"><rect width="6" height="6"></rect></g>
<g transform="translate(660,620) scale(3.4333333333333)"><rect width="6" height="6"></rect></g>
<g transform="translate(680,620) scale(3.4333333333333)"><rect width="6" height="6"></rect></g>
<g transform="translate(760,620) scale(3.4333333333333)"><rect width="6" height="6"></rect></g>
<g transform="translate(780,620) scale(3.4333333333333)"><rect width="6" height="6"></rect></g>
<g transform="translate(860,620) scale(3.4333333333333)"><rect width="6" height="6"></rect></g>
<g transform="translate(920,620) scale(3.4333333333333)"><rect width="6" height="6"></rect></g>
<g transform="translate(40,640) scale(3.4333333333333)"><rect width="6" height="6"></rect></g>
<g transform="translate(100,640) scale(3.4333333333333)"><rect width="6" height="6"></rect></g>
<g transform="translate(140,640) scale(3.4333333333333)"><rect width="6" height="6"></rect></g>
<g transform="translate(160,640) scale(3.4333333333333)"><rect width="6" height="6"></rect></g>
<g transform="translate(180,640) scale(3.4333333333333)"><rect width="6" height="6"></rect></g>
<g transform="translate(220,640) scale(3.4333333333333)"><rect width="6" height="6"></rect></g>
<g transform="translate(300,640) scale(3.4333333333333)"><rect width="6" height="6"></rect></g>
<g transform="translate(340,640) scale(3.4333333333333)"><rect width="6" height="6"></rect></g>
<g transform="translate(420,640) scale(3.4333333333333)"><rect width="6" height="6"></rect></g>
<g transform="translate(500,640) scale(3.4333333333333)"><rect width="6" height="6"></rect></g>
<g transform="translate(540,640) scale(3.4333333333333)"><rect width="6" height="6"></rect></g>
<g transform="translate(580,640) scale(3.4333333333333)"><rect width="6" height="6"></rect></g>
<g transform="translate(660,640) scale(3.4333333333333)"><rect width="6" height="6"></rect></g>
<g transform="translate(680,640) scale(3.4333333333333)"><rect width="6" height="6"></rect></g>
<g transform="translate(720,640) scale(3.4333333333333)"><rect width="6" height="6"></rect></g>
<g transform="translate(740,640) scale(3.4333333333333)"><rect width="6" height="6"></rect></g>
<g transform="translate(760,640) scale(3.4333333333333)"><rect width="6" height="6"></rect></g>
<g transform="translate(780,640) scale(3.4333333333333)"><rect width="6" height="6"></rect></g>
<g transform="translate(820,640) scale(3.4333333333333)"><rect width="6" height="6"></rect></g>
<g transform="translate(40,660) scale(3.4333333333333)"><rect width="6" height="6"></rect></g>
<g transform="translate(120,660) scale(3.4333333333333)"><rect width="6" height="6"></rect></g>
<g transform="translate(240,660) scale(3.4333333333333)"><rect width="6" height="6"></rect></g>
<g transform="translate(260,660) scale(3.4333333333333)"><rect width="6" height="6"></rect></g>
<g transform="translate(320,660) scale(3.4333333333333)"><rect width="6" height="6"></rect></g>
<g transform="translate(360,660) scale(3.4333333333333)"><rect width="6" height="6"></rect></g>
<g transform="translate(380,660) scale(3.4333333333333)"><rect width="6" height="6"></rect></g>
<g transform="translate(400,660) scale(3.4333333333333)"><rect width="6" height="6"></rect></g>
<g transform="translate(420,660) scale(3.4333333333333)"><rect width="6" height="6"></rect></g>
<g transform="translate(460,660) scale(3.4333333333333)"><rect width="6" height="6"></rect></g>
<g transform="translate(500,660) scale(3.4333333333333)"><rect width="6" height="6"></rect></g>
<g transform="translate(520,660) scale(3.4333333333333)"><rect width="6" height="6"></rect></g>
<g transform="translate(580,660) scale(3.4333333333333)"><rect width="6" height="6"></rect></g>
<g transform="translate(680,660) scale(3.4333333333333)"><rect width="6" height="6"></rect></g>
<g transform="translate(700,660) scale(3.4333333333333)"><rect width="6" height="6"></rect></g>
<g transform="translate(860,660) scale(3.4333333333333)"><rect width="6" height="6"></rect></g>
<g transform="translate(880,660) scale(3.4333333333333)"><rect width="6" height="6"></rect></g>
<g transform="translate(900,660) scale(3.4333333333333)"><rect width="6" height="6"></rect></g>
<g transform="translate(920,660) scale(3.4333333333333)"><rect width="6" height="6"></rect></g>
<g transform="translate(60,680) scale(3.4333333333333)"><rect width="6" height="6"></rect></g>
<g transform="translate(80,680) scale(3.4333333333333)"><rect width="6" height="6"></rect></g>
<g transform="translate(100,680) scale(3.4333333333333)"><rect width="6" height="6"></rect></g>
<g transform="translate(140,680) scale(3.4333333333333)"><rect width="6" height="6"></rect></g>
<g transform="translate(160,680) scale(3.4333333333333)"><rect width="6" height="6"></rect></g>
<g transform="translate(220,680) scale(3.4333333333333)"><rect width="6" height="6"></rect></g>
<g transform="translate(240,680) scale(3.4333333333333)"><rect width="6" height="6"></rect></g>
<g transform="translate(300,680) scale(3.4333333333333)"><rect width="6" height="6"></rect></g>
<g transform="translate(340,680) scale(3.4333333333333)"><rect width="6" height="6"></rect></g>
<g transform="translate(360,680) scale(3.4333333333333)"><rect width="6" height="6"></rect></g>
<g transform="translate(380,680) scale(3.4333333333333)"><rect width="6" height="6"></rect></g>
<g transform="translate(420,680) scale(3.4333333333333)"><rect width="6" height="6"></rect></g>
<g transform="translate(440,680) scale(3.4333333333333)"><rect width="6" height="6"></rect></g>
<g transform="translate(500,680) scale(3.4333333333333)"><rect width="6" height="6"></rect></g>
<g transform="translate(520,680) scale(3.4333333333333)"><rect width="6" height="6"></rect></g>
<g transform="translate(540,680) scale(3.4333333333333)"><rect width="6" height="6"></rect></g>
<g transform="translate(560,680) scale(3.4333333333333)"><rect width="6" height="6"></rect></g>
<g transform="translate(620,680) scale(3.4333333333333)"><rect width="6" height="6"></rect></g>
<g transform="translate(640,680) scale(3.4333333333333)"><rect width="6" height="6"></rect></g>
<g transform="translate(660,680) scale(3.4333333333333)"><rect width="6" height="6"></rect></g>
<g transform="translate(700,680) scale(3.4333333333333)"><rect width="6" height="6"></rect></g>
<g transform="translate(720,680) scale(3.4333333333333)"><rect width="6" height="6"></rect></g>
<g transform="translate(740,680) scale(3.4333333333333)"><rect width="6" height="6"></rect></g>
<g transform="translate(780,680) scale(3.4333333333333)"><rect width="6" height="6"></rect></g>
<g transform="translate(800,680) scale(3.4333333333333)"><rect width="6" height="6"></rect></g>
<g transform="translate(820,680) scale(3.4333333333333)"><rect width="6" height="6"></rect></g>
<g transform="translate(840,680) scale(3.4333333333333)"><rect width="6" height="6"></rect></g>
<g transform="translate(860,680) scale(3.4333333333333)"><rect width="6" height="6"></rect></g>
<g transform="translate(80,700) scale(3.4333333333333)"><rect width="6" height="6"></rect></g>
<g transform="translate(100,700) scale(3.4333333333333)"><rect width="6" height="6"></rect></g>
<g transform="translate(180,700) scale(3.4333333333333)"><rect width="6" height="6"></rect></g>
<g transform="translate(240,700) scale(3.4333333333333)"><rect width="6" height="6"></rect></g>
<g transform="translate(420,700) scale(3.4333333333333)"><rect width="6" height="6"></rect></g>
<g transform="translate(440,700) scale(3.4333333333333)"><rect width="6" height="6"></rect></g>
<g transform="translate(500,700) scale(3.4333333333333)"><rect width="6" height="6"></rect></g>
<g transform="translate(600,700) scale(3.4333333333333)"><rect width="6" height="6"></rect></g>
<g transform="translate(620,700) scale(3.4333333333333)"><rect width="6" height="6"></rect></g>
<g transform="translate(640,700) scale(3.4333333333333)"><rect width="6" height="6"></rect></g>
<g transform="translate(660,700) scale(3.4333333333333)"><rect width="6" height="6"></rect></g>
<g transform="translate(700,700) scale(3.4333333333333)"><rect width="6" height="6"></rect></g>
<g transform="translate(740,700) scale(3.4333333333333)"><rect width="6" height="6"></rect></g>
<g transform="translate(800,700) scale(3.4333333333333)"><rect width="6" height="6"></rect></g>
<g transform="translate(860,700) scale(3.4333333333333)"><rect width="6" height="6"></rect></g>
<g transform="translate(880,700) scale(3.4333333333333)"><rect width="6" height="6"></rect></g>
<g transform="translate(900,700) scale(3.4333333333333)"><rect width="6" height="6"></rect></g>
<g transform="translate(920,700) scale(3.4333333333333)"><rect width="6" height="6"></rect></g>
<g transform="translate(120,720) scale(3.4333333333333)"><rect width="6" height="6"></rect></g>
<g transform="translate(160,720) scale(3.4333333333333)"><rect width="6" height="6"></rect></g>
<g transform="translate(200,720) scale(3.4333333333333)"><rect width="6" height="6"></rect></g>
<g transform="translate(240,720) scale(3.4333333333333)"><rect width="6" height="6"></rect></g>
<g transform="translate(260,720) scale(3.4333333333333)"><rect width="6" height="6"></rect></g>
<g transform="translate(280,720) scale(3.4333333333333)"><rect width="6" height="6"></rect></g>
<g transform="translate(300,720) scale(3.4333333333333)"><rect width="6" height="6"></rect></g>
<g transform="translate(320,720) scale(3.4333333333333)"><rect width="6" height="6"></rect></g>
<g transform="translate(440,720) scale(3.4333333333333)"><rect width="6" height="6"></rect></g>
<g transform="translate(480,720) scale(3.4333333333333)"><rect width="6" height="6"></rect></g>
<g transform="translate(500,720) scale(3.4333333333333)"><rect width="6" height="6"></rect></g>
<g transform="translate(540,720) scale(3.4333333333333)"><rect width="6" height="6"></rect></g>
<g transform="translate(580,720) scale(3.4333333333333)"><rect width="6" height="6"></rect></g>
<g transform="translate(600,720) scale(3.4333333333333)"><rect width="6" height="6"></rect></g>
<g transform="translate(620,720) scale(3.4333333333333)"><rect width="6" height="6"></rect></g>
<g transform="translate(640,720) scale(3.4333333333333)"><rect width="6" height="6"></rect></g>
<g transform="translate(680,720) scale(3.4333333333333)"><rect width="6" height="6"></rect></g>
<g transform="translate(700,720) scale(3.4333333333333)"><rect width="6" height="6"></rect></g>
<g transform="translate(720,720) scale(3.4333333333333)"><rect width="6" height="6"></rect></g>
<g transform="translate(740,720) scale(3.4333333333333)"><rect width="6" height="6"></rect></g>
<g transform="translate(780,720) scale(3.4333333333333)"><rect width="6" height="6"></rect></g>
<g transform="translate(840,720) scale(3.4333333333333)"><rect width="6" height="6"></rect></g>
<g transform="translate(880,720) scale(3.4333333333333)"><rect width="6" height="6"></rect></g>
<g transform="translate(900,720) scale(3.4333333333333)"><rect width="6" height="6"></rect></g>
<g transform="translate(60,740) scale(3.4333333333333)"><rect width="6" height="6"></rect></g>
<g transform="translate(80,740) scale(3.4333333333333)"><rect width="6" height="6"></rect></g>
<g transform="translate(100,740) scale(3.4333333333333)"><rect width="6" height="6"></rect></g>
<g transform="translate(120,740) scale(3.4333333333333)"><rect width="6" height="6"></rect></g>
<g transform="translate(180,740) scale(3.4333333333333)"><rect width="6" height="6"></rect></g>
<g transform="translate(220,740) scale(3.4333333333333)"><rect width="6" height="6"></rect></g>
<g transform="translate(320,740) scale(3.4333333333333)"><rect width="6" height="6"></rect></g>
<g transform="translate(420,740) scale(3.4333333333333)"><rect width="6" height="6"></rect></g>
<g transform="translate(440,740) scale(3.4333333333333)"><rect width="6" height="6"></rect></g>
<g transform="translate(540,740) scale(3.4333333333333)"><rect width="6" height="6"></rect></g>
<g transform="translate(560,740) scale(3.4333333333333)"><rect width="6" height="6"></rect></g>
<g transform="translate(580,740) scale(3.4333333333333)"><rect width="6" height="6"></rect></g>
<g transform="translate(600,740) scale(3.4333333333333)"><rect width="6" height="6"></rect></g>
<g transform="translate(680,740) scale(3.4333333333333)"><rect width="6" height="6"></rect></g>
<g transform="translate(740,740) scale(3.4333333333333)"><rect width="6" height="6"></rect></g>
<g transform="translate(800,740) scale(3.4333333333333)"><rect width="6" height="6"></rect></g>
<g transform="translate(820,740) scale(3.4333333333333)"><rect width="6" height="6"></rect></g>
<g transform="translate(860,740) scale(3.4333333333333)"><rect width="6" height="6"></rect></g>
<g transform="translate(880,740) scale(3.4333333333333)"><rect width="6" height="6"></rect></g>
<g transform="translate(900,740) scale(3.4333333333333)"><rect width="6" height="6"></rect></g>
<g transform="translate(920,740) scale(3.4333333333333)"><rect width="6" height="6"></rect></g>
<g transform="translate(40,760) scale(3.4333333333333)"><rect width="6" height="6"></rect></g>
<g transform="translate(100,760) scale(3.4333333333333)"><rect width="6" height="6"></rect></g>
<g transform="translate(120,760) scale(3.4333333333333)"><rect width="6" height="6"></rect></g>
<g transform="translate(160,760) scale(3.4333333333333)"><rect width="6" height="6"></rect></g>
<g transform="translate(200,760) scale(3.4333333333333)"><rect width="6" height="6"></rect></g>
<g transform="translate(220,760) scale(3.4333333333333)"><rect width="6" height="6"></rect></g>
<g transform="translate(240,760) scale(3.4333333333333)"><rect width="6" height="6"></rect></g>
<g transform="translate(260,760) scale(3.4333333333333)"><rect width="6" height="6"></rect></g>
<g transform="translate(280,760) scale(3.4333333333333)"><rect width="6" height="6"></rect></g>
<g transform="translate(320,760) scale(3.4333333333333)"><rect width="6" height="6"></rect></g>
<g transform="translate(360,760) scale(3.4333333333333)"><rect width="6" height="6"></rect></g>
<g transform="translate(440,760) scale(3.4333333333333)"><rect width="6" height="6"></rect></g>
<g transform="translate(460,760) scale(3.4333333333333)"><rect width="6" height="6"></rect></g>
<g transform="translate(480,760) scale(3.4333333333333)"><rect width="6" height="6"></rect></g>
<g transform="translate(500,760) scale(3.4333333333333)"><rect width="6" height="6"></rect></g>
<g transform="translate(520,760) scale(3.4333333333333)"><rect width="6" height="6"></rect></g>
<g transform="translate(600,760) scale(3.4333333333333)"><rect width="6" height="6"></rect></g>
<g transform="translate(620,760) scale(3.4333333333333)"><rect width="6" height="6"></rect></g>
<g transform="translate(640,760) scale(3.4333333333333)"><rect width="6" height="6"></rect></g>
<g transform="translate(660,760) scale(3.4333333333333)"><rect width="6" height="6"></rect></g>
<g transform="translate(700,760) scale(3.4333333333333)"><rect width="6" height="6"></rect></g>
<g transform="translate(760,760) scale(3.4333333333333)"><rect width="6" height="6"></rect></g>
<g transform="translate(780,760) scale(3.4333333333333)"><rect width="6" height="6"></rect></g>
<g transform="translate(800,760) scale(3.4333333333333)"><rect width="6" height="6"></rect></g>
<g transform="translate(820,760) scale(3.4333333333333)"><rect width="6" height="6"></rect></g>
<g transform="translate(840,760) scale(3.4333333333333)"><rect width="6" height="6"></rect></g>
<g transform="translate(860,760) scale(3.4333333333333)"><rect width="6" height="6"></rect></g>
<g transform="translate(900,760) scale(3.4333333333333)"><rect width="6" height="6"></rect></g>
<g transform="translate(920,760) scale(3.4333333333333)"><rect width="6" height="6"></rect></g>
<g transform="translate(200,780) scale(3.4333333333333)"><rect width="6" height="6"></rect></g>
<g transform="translate(220,780) scale(3.4333333333333)"><rect width="6" height="6"></rect></g>
<g transform="translate(260,780) scale(3.4333333333333)"><rect width="6" height="6"></rect></g>
<g transform="translate(280,780) scale(3.4333333333333)"><rect width="6" height="6"></rect></g>
<g transform="translate(300,780) scale(3.4333333333333)"><rect width="6" height="6"></rect></g>
<g transform="translate(340,780) scale(3.4333333333333)"><rect width="6" height="6"></rect></g>
<g transform="translate(380,780) scale(3.4333333333333)"><rect width="6" height="6"></rect></g>
<g transform="translate(440,780) scale(3.4333333333333)"><rect width="6" height="6"></rect></g>
<g transform="translate(520,780) scale(3.4333333333333)"><rect width="6" height="6"></rect></g>
<g transform="translate(540,780) scale(3.4333333333333)"><rect width="6" height="6"></rect></g>
<g transform="translate(600,780) scale(3.4333333333333)"><rect width="6" height="6"></rect></g>
<g transform="translate(620,780) scale(3.4333333333333)"><rect width="6" height="6"></rect></g>
<g transform="translate(680,780) scale(3.4333333333333)"><rect width="6" height="6"></rect></g>
<g transform="translate(760,780) scale(3.4333333333333)"><rect width="6" height="6"></rect></g>
<g transform="translate(840,780) scale(3.4333333333333)"><rect width="6" height="6"></rect></g>
<g transform="translate(860,780) scale(3.4333333333333)"><rect width="6" height="6"></rect></g>
<g transform="translate(900,780) scale(3.4333333333333)"><rect width="6" height="6"></rect></g>
<g transform="translate(920,780) scale(3.4333333333333)"><rect width="6" height="6"></rect></g>
<g transform="translate(280,800) scale(3.4333333333333)"><rect width="6" height="6"></rect></g>
<g transform="translate(300,800) scale(3.4333333333333)"><rect width="6" height="6"></rect></g>
<g transform="translate(320,800) scale(3.4333333333333)"><rect width="6" height="6"></rect></g>
<g transform="translate(360,800) scale(3.4333333333333)"><rect width="6" height="6"></rect></g>
<g transform="translate(400,800) scale(3.4333333333333)"><rect width="6" height="6"></rect></g>
<g transform="translate(420,800) scale(3.4333333333333)"><rect width="6" height="6"></rect></g>
<g transform="translate(440,800) scale(3.4333333333333)"><rect width="6" height="6"></rect></g>
<g transform="translate(480,800) scale(3.4333333333333)"><rect width="6" height="6"></rect></g>
<g transform="translate(520,800) scale(3.4333333333333)"><rect width="6" height="6"></rect></g>
<g transform="translate(560,800) scale(3.4333333333333)"><rect width="6" height="6"></rect></g>
<g transform="translate(580,800) scale(3.4333333333333)"><rect width="6" height="6"></rect></g>
<g transform="translate(600,800) scale(3.4333333333333)"><rect width="6" height="6"></rect></g>
<g transform="translate(660,800) scale(3.4333333333333)"><rect width="6" height="6"></rect></g>
<g transform="translate(680,800) scale(3.4333333333333)"><rect width="6" height="6"></rect></g>
<g transform="translate(700,800) scale(3.4333333333333)"><rect width="6" height="6"></rect></g>
<g transform="translate(720,800) scale(3.4333333333333)"><rect width="6" height="6"></rect></g>
<g transform="translate(740,800) scale(3.4333333333333)"><rect width="6" height="6"></rect></g>
<g transform="translate(760,800) scale(3.4333333333333)"><rect width="6" height="6"></rect></g>
<g transform="translate(800,800) scale(3.4333333333333)"><rect width="6" height="6"></rect></g>
<g transform="translate(840,800) scale(3.4333333333333)"><rect width="6" height="6"></rect></g>
<g transform="translate(900,800) scale(3.4333333333333)"><rect width="6" height="6"></rect></g>
<g transform="translate(240,820) scale(3.4333333333333)"><rect width="6" height="6"></rect></g>
<g transform="translate(260,820) scale(3.4333333333333)"><rect width="6" height="6"></rect></g>
<g transform="translate(300,820) scale(3.4333333333333)"><rect width="6" height="6"></rect></g>
<g transform="translate(320,820) scale(3.4333333333333)"><rect width="6" height="6"></rect></g>
<g transform="translate(380,820) scale(3.4333333333333)"><rect width="6" height="6"></rect></g>
<g transform="translate(400,820) scale(3.4333333333333)"><rect width="6" height="6"></rect></g>
<g transform="translate(440,820) scale(3.4333333333333)"><rect width="6" height="6"></rect></g>
<g transform="translate(520,820) scale(3.4333333333333)"><rect width="6" height="6"></rect></g>
<g transform="translate(540,820) scale(3.4333333333333)"><rect width="6" height="6"></rect></g>
<g transform="translate(600,820) scale(3.4333333333333)"><rect width="6" height="6"></rect></g>
<g transform="translate(680,820) scale(3.4333333333333)"><rect width="6" height="6"></rect></g>
<g transform="translate(720,820) scale(3.4333333333333)"><rect width="6" height="6"></rect></g>
<g transform="translate(740,820) scale(3.4333333333333)"><rect width="6" height="6"></rect></g>
<g transform="translate(760,820) scale(3.4333333333333)"><rect width="6" height="6"></rect></g>
<g transform="translate(840,820) scale(3.4333333333333)"><rect width="6" height="6"></rect></g>
<g transform="translate(860,820) scale(3.4333333333333)"><rect width="6" height="6"></rect></g>
<g transform="translate(880,820) scale(3.4333333333333)"><rect width="6" height="6"></rect></g>
<g transform="translate(900,820) scale(3.4333333333333)"><rect width="6" height="6"></rect></g>
<g transform="translate(920,820) scale(3.4333333333333)"><rect width="6" height="6"></rect></g>
<g transform="translate(200,840) scale(3.4333333333333)"><rect width="6" height="6"></rect></g>
<g transform="translate(220,840) scale(3.4333333333333)"><rect width="6" height="6"></rect></g>
<g transform="translate(260,840) scale(3.4333333333333)"><rect width="6" height="6"></rect></g>
<g transform="translate(280,840) scale(3.4333333333333)"><rect width="6" height="6"></rect></g>
<g transform="translate(320,840) scale(3.4333333333333)"><rect width="6" height="6"></rect></g>
<g transform="translate(380,840) scale(3.4333333333333)"><rect width="6" height="6"></rect></g>
<g transform="translate(400,840) scale(3.4333333333333)"><rect width="6" height="6"></rect></g>
<g transform="translate(420,840) scale(3.4333333333333)"><rect width="6" height="6"></rect></g>
<g transform="translate(440,840) scale(3.4333333333333)"><rect width="6" height="6"></rect></g>
<g transform="translate(460,840) scale(3.4333333333333)"><rect width="6" height="6"></rect></g>
<g transform="translate(480,840) scale(3.4333333333333)"><rect width="6" height="6"></rect></g>
<g transform="translate(500,840) scale(3.4333333333333)"><rect width="6" height="6"></rect></g>
<g transform="translate(520,840) scale(3.4333333333333)"><rect width="6" height="6"></rect></g>
<g transform="translate(540,840) scale(3.4333333333333)"><rect width="6" height="6"></rect></g>
<g transform="translate(560,840) scale(3.4333333333333)"><rect width="6" height="6"></rect></g>
<g transform="translate(580,840) scale(3.4333333333333)"><rect width="6" height="6"></rect></g>
<g transform="translate(600,840) scale(3.4333333333333)"><rect width="6" height="6"></rect></g>
<g transform="translate(620,840) scale(3.4333333333333)"><rect width="6" height="6"></rect></g>
<g transform="translate(660,840) scale(3.4333333333333)"><rect width="6" height="6"></rect></g>
<g transform="translate(740,840) scale(3.4333333333333)"><rect width="6" height="6"></rect></g>
<g transform="translate(760,840) scale(3.4333333333333)"><rect width="6" height="6"></rect></g>
<g transform="translate(780,840) scale(3.4333333333333)"><rect width="6" height="6"></rect></g>
<g transform="translate(800,840) scale(3.4333333333333)"><rect width="6" height="6"></rect></g>
<g transform="translate(820,840) scale(3.4333333333333)"><rect width="6" height="6"></rect></g>
<g transform="translate(840,840) scale(3.4333333333333)"><rect width="6" height="6"></rect></g>
<g transform="translate(900,840) scale(3.4333333333333)"><rect width="6" height="6"></rect></g>
<g transform="translate(200,860) scale(3.4333333333333)"><rect width="6" height="6"></rect></g>
<g transform="translate(220,860) scale(3.4333333333333)"><rect width="6" height="6"></rect></g>
<g transform="translate(240,860) scale(3.4333333333333)"><rect width="6" height="6"></rect></g>
<g transform="translate(260,860) scale(3.4333333333333)"><rect width="6" height="6"></rect></g>
<g transform="translate(300,860) scale(3.4333333333333)"><rect width="6" height="6"></rect></g>
<g transform="translate(400,860) scale(3.4333333333333)"><rect width="6" height="6"></rect></g>
<g transform="translate(460,860) scale(3.4333333333333)"><rect width="6" height="6"></rect></g>
<g transform="translate(520,860) scale(3.4333333333333)"><rect width="6" height="6"></rect></g>
<g transform="translate(540,860) scale(3.4333333333333)"><rect width="6" height="6"></rect></g>
<g transform="translate(560,860) scale(3.4333333333333)"><rect width="6" height="6"></rect></g>
<g transform="translate(580,860) scale(3.4333333333333)"><rect width="6" height="6"></rect></g>
<g transform="translate(660,860) scale(3.4333333333333)"><rect width="6" height="6"></rect></g>
<g transform="translate(680,860) scale(3.4333333333333)"><rect width="6" height="6"></rect></g>
<g transform="translate(820,860) scale(3.4333333333333)"><rect width="6" height="6"></rect></g>
<g transform="translate(860,860) scale(3.4333333333333)"><rect width="6" height="6"></rect></g>
<g transform="translate(880,860) scale(3.4333333333333)"><rect width="6" height="6"></rect></g>
<g transform="translate(920,860) scale(3.4333333333333)"><rect width="6" height="6"></rect></g>
<g transform="translate(200,880) scale(3.4333333333333)"><rect width="6" height="6"></rect></g>
<g transform="translate(220,880) scale(3.4333333333333)"><rect width="6" height="6"></rect></g>
<g transform="translate(240,880) scale(3.4333333333333)"><rect width="6" height="6"></rect></g>
<g transform="translate(260,880) scale(3.4333333333333)"><rect width="6" height="6"></rect></g>
<g transform="translate(320,880) scale(3.4333333333333)"><rect width="6" height="6"></rect></g>
<g transform="translate(500,880) scale(3.4333333333333)"><rect width="6" height="6"></rect></g>
<g transform="translate(560,880) scale(3.4333333333333)"><rect width="6" height="6"></rect></g>
<g transform="translate(620,880) scale(3.4333333333333)"><rect width="6" height="6"></rect></g>
<g transform="translate(740,880) scale(3.4333333333333)"><rect width="6" height="6"></rect></g>
<g transform="translate(760,880) scale(3.4333333333333)"><rect width="6" height="6"></rect></g>
<g transform="translate(780,880) scale(3.4333333333333)"><rect width="6" height="6"></rect></g>
<g transform="translate(800,880) scale(3.4333333333333)"><rect width="6" height="6"></rect></g>
<g transform="translate(820,880) scale(3.4333333333333)"><rect width="6" height="6"></rect></g>
<g transform="translate(860,880) scale(3.4333333333333)"><rect width="6" height="6"></rect></g>
<g transform="translate(880,880) scale(3.4333333333333)"><rect width="6" height="6"></rect></g>
<g transform="translate(220,900) scale(3.4333333333333)"><rect width="6" height="6"></rect></g>
<g transform="translate(240,900) scale(3.4333333333333)"><rect width="6" height="6"></rect></g>
<g transform="translate(260,900) scale(3.4333333333333)"><rect width="6" height="6"></rect></g>
<g transform="translate(300,900) scale(3.4333333333333)"><rect width="6" height="6"></rect></g>
<g transform="translate(320,900) scale(3.4333333333333)"><rect width="6" height="6"></rect></g>
<g transform="translate(360,900) scale(3.4333333333333)"><rect width="6" height="6"></rect></g>
<g transform="translate(420,900) scale(3.4333333333333)"><rect width="6" height="6"></rect></g>
<g transform="translate(440,900) scale(3.4333333333333)"><rect width="6" height="6"></rect></g>
<g transform="translate(460,900) scale(3.4333333333333)"><rect width="6" height="6"></rect></g>
<g transform="translate(480,900) scale(3.4333333333333)"><rect width="6" height="6"></rect></g>
<g transform="translate(600,900) scale(3.4333333333333)"><rect width="6" height="6"></rect></g>
<g transform="translate(620,900) scale(3.4333333333333)"><rect width="6" height="6"></rect></g>
<g transform="translate(640,900) scale(3.4333333333333)"><rect width="6" height="6"></rect></g>
<g transform="translate(720,900) scale(3.4333333333333)"><rect width="6" height="6"></rect></g>
<g transform="translate(760,900) scale(3.4333333333333)"><rect width="6" height="6"></rect></g>
<g transform="translate(820,900) scale(3.4333333333333)"><rect width="6" height="6"></rect></g>
<g transform="translate(840,900) scale(3.4333333333333)"><rect width="6" height="6"></rect></g>
<g transform="translate(860,900) scale(3.4333333333333)"><rect width="6" height="6"></rect></g>
<g transform="translate(880,900) scale(3.4333333333333)"><rect width="6" height="6"></rect></g>
<g transform="translate(220,920) scale(3.4333333333333)"><rect width="6" height="6"></rect></g>
<g transform="translate(260,920) scale(3.4333333333333)"><rect width="6" height="6"></rect></g>
<g transform="translate(380,920) scale(3.4333333333333)"><rect width="6" height="6"></rect></g>
<g transform="translate(400,920) scale(3.4333333333333)"><rect width="6" height="6"></rect></g>
<g transform="translate(480,920) scale(3.4333333333333)"><rect width="6" height="6"></rect></g>
<g transform="translate(500,920) scale(3.4333333333333)"><rect width="6" height="6"></rect></g>
<g transform="translate(580,920) scale(3.4333333333333)"><rect width="6" height="6"></rect></g>
<g transform="translate(620,920) scale(3.4333333333333)"><rect width="6" height="6"></rect></g>
<g transform="translate(640,920) scale(3.4333333333333)"><rect width="6" height="6"></rect></g>
<g transform="translate(700,920) scale(3.4333333333333)"><rect width="6" height="6"></rect></g>
<g transform="translate(740,920) scale(3.4333333333333)"><rect width="6" height="6"></rect></g>
<g transform="translate(760,920) scale(3.4333333333333)"><rect width="6" height="6"></rect></g>
<g transform="translate(780,920) scale(3.4333333333333)"><rect width="6" height="6"></rect></g>
<g transform="translate(800,920) scale(3.4333333333333)"><rect width="6" height="6"></rect></g>
<g transform="translate(820,920) scale(3.4333333333333)"><rect width="6" height="6"></rect></g>
<g transform="translate(860,920) scale(3.4333333333333)"><rect width="6" height="6"></rect></g>
<g transform="translate(900,920) scale(3.4333333333333)"><rect width="6" height="6"></rect></g>
</g><g><g transform="translate(40,40)" fill="#000000"><g transform="scale(10)"><path d="M0,0v14h14V0H0z M12,12H2V2h10V12z"></path></g></g>
<g transform="translate(800,40)" fill="#000000"><g transform="scale(10)"><path d="M0,0v14h14V0H0z M12,12H2V2h10V12z"></path></g></g>
<g transform="translate(40,800)" fill="#000000"><g transform="scale(10)"><path d="M0,0v14h14V0H0z M12,12H2V2h10V12z"></path></g></g>
<g transform="translate(80,80)" fill="#000000"><g transform="scale(10)"><rect width="6" height="6"></rect></g></g>
<g transform="translate(840,80)" fill="#000000"><g transform="scale(10)"><rect width="6" height="6"></rect></g></g>
<g transform="translate(80,840)" fill="#000000"><g transform="scale(10)"><rect width="6" height="6"></rect></g></g></g>
</svg>
